<?xml version="1.0" encoding="UTF-8"?>
<svg version="1.1" viewBox="0 0 1764 1764" width="1280" height="1280" xmlns="http://www.w3.org/2000/svg">
<path transform="translate(0)" d="m0 0h1764v1764h-1764z" fill="#FEFEFE"/>
<path transform="translate(529,488)" d="m0 0h123l3 5 14 36 12 30 17 43 27 68 17 43 23 58 13 33 38 95 15 39 26 65 15 38 14 35 2-3 14-35 17-42 26-65 17-42 30-75 31-77 22-55 5 3 23 23 7 9 12 17 10 18 8 16 8 21 2 6v9l-6 14-11 28-34 85-11 28-38 95-13 33-11 27-15 38-16 40-21 53-12 30-4 9h-83l-5-10-12-31-13-32-22-56-50-125-18-46-26-65-48-121-38-95-11-28-19-48-29-73-14-35-11-28z" fill="#535354"/>
<path transform="translate(870,491)" d="m0 0h45l33 3 30 5 32 8 26 9 28 12 21 11 19 12 18 13 11 9 13 11 26 26 9 11 10 13 15 22 13 22 9 17 13 31 10 28 8 29v2l-9 1h-65l-39-1-11-28-11-23-12-20-14-19-11-12-7-8-13-12-13-10-15-10-17-10-25-11-22-7-26-6-33-4h-47l-26 3-24 5-20 6-18 7-27 14-4 2-5-10-36-88-1-7 26-13 27-11 25-8 30-7 24-4z" fill="#535354"/>
<path transform="translate(568,672)" d="m0 0h3l15 39 12 30 23 58 6 16-1 7-5 30-2 21v25l2 23 4 24 6 24 8 23 8 18 12 23 16 24 13 16 12 14 9 9 8 7 12 10 11 8 10 7 7 14 10 26 19 48 15 38 7 18v2l-11-3-27-8-28-11-25-12-21-12-18-12-14-10-16-13-13-12-23-23-7-8-13-16-10-14-10-15-9-15-9-16-14-29-10-26-8-25-7-30-4-24-3-29v-49l3-31 5-28 8-32 9-27 10-24 12-25 11-20z" fill="#535354"/>
<path transform="translate(1154,986)" d="m0 0h110l1 2-8 27-9 26-13 30-14 27-14 22-12 17-13 16-7 8-9 10-21 21-8 7-15 12-17 12-16 10-15 9-23 11-27 11-29 9-24 6-8 1 1-5 9-24 13-33 18-46 10-26 8-5 20-11 18-12 14-11 10-9 17-17 11-14 10-14 12-21 9-19 10-26z" fill="#535354"/>
<path transform="translate(1123,488)" d="m0 0h120l-1 6-12 31-12 30-13 33-2 7-4-2-7-8-17-17v-2l-4-2-9-9-11-9-12-10-18-13-9-6 1-6 8-21z" fill="#535354"/>
</svg>
